<svg xmlns="http://www.w3.org/2000/svg" xmlns:xlink="http://www.w3.org/1999/xlink" xmlns:serif="http://www.serif.com/" viewBox="0 0 100 125" version="1.1" xml:space="preserve" style="" x="0px" y="0px" fill-rule="evenodd" clip-rule="evenodd" stroke-linejoin="round" stroke-miterlimit="2"><g transform="matrix(1,0,0,1,0.268368,10.7221)"><g transform="matrix(0.438435,0,-4.62374e-17,0.613809,25.5585,6.77826)"><path d="M89.97,12.641C89.97,9.898 86.852,7.672 83.012,7.672L27.353,7.672C23.513,7.672 20.395,9.898 20.395,12.641L20.395,72.276C20.395,75.019 23.513,77.246 27.353,77.246L83.012,77.246C86.852,77.246 89.97,75.019 89.97,72.276L89.97,12.641Z"/></g><g transform="matrix(1.66588,0,0,1.66588,-0.0318782,-5.98318)"><path d="M40.04,18.295L40.04,35.291C40.04,36.302 39.22,37.122 38.209,37.122L33.223,37.122L44.505,43.605C45.382,44.108 46.502,43.805 47.005,42.929L57.951,23.877C58.455,23 58.152,21.88 57.276,21.377L44.574,14.079C43.698,13.576 42.578,13.879 42.074,14.755L40.04,18.295Z"/></g><g transform="matrix(1.66588,0,0,1.66588,-3.36364,-5.98318)"><path d="M28.513,37.122L23.56,37.122C22.55,37.122 21.729,36.302 21.729,35.291L21.729,18.348L19.653,14.751C19.147,13.876 18.027,13.576 17.151,14.081L4.465,21.406C3.59,21.911 3.29,23.032 3.795,23.907L14.782,42.936C15.287,43.811 16.408,44.112 17.283,43.606L28.513,37.122Z"/></g></g><text x="0" y="115" fill="#000000" font-size="5px" font-weight="bold" font-family="'Helvetica Neue', Helvetica, Arial-Unicode, Arial, Sans-serif">Created by Roberto Blanco</text><text x="0" y="120" fill="#000000" font-size="5px" font-weight="bold" font-family="'Helvetica Neue', Helvetica, Arial-Unicode, Arial, Sans-serif">from the Noun Project</text></svg>