<svg xmlns="http://www.w3.org/2000/svg" xmlns:xlink="http://www.w3.org/1999/xlink" version="1.1" x="0px" y="0px" viewBox="0 0 100 125" enable-background="new 0 0 100 100" xml:space="preserve"><path d="M17.7,45.8L5.4,56.5c-0.4,0.3-0.7,1-0.2,1.8c0.5,0.8,1.7,1.5,3.5,1.9l41.6,10.3c0.4,0.1,4.2,1,5.8-0.4l15.6-13.6h-2.6H52.1  H31.9c-3.3,0-7.9-1.3-10.3-4.9L17.7,45.8z M79.4,51.1L67.1,32.4c-1.5-2.2-4.9-2.8-6.5-2.8H14.9c-1.6,0-2,0.4-2,0.4  c0,0,0.1,0.3,0.3,0.5l12.3,18.7c1.4,2.1,4.6,2.8,6.5,2.8h45.7c1.6,0,2-0.4,2-0.4C79.6,51.7,79.5,51.3,79.4,51.1 M91.1,47.7  l-14.8-9.5l6.8,10.4c0.9,1.4,1.5,3.5,0.4,5.3c-1,1.8-3,2.6-6,2.6h-3.4l-9.4,8.2l3.3,2.1c3.2,2.1,7.7,0,10-1.9l11.8-9.8  C94,51.8,92.9,48.9,91.1,47.7"/><text x="0" y="115" fill="#000000" font-size="5px" font-weight="bold" font-family="'Helvetica Neue', Helvetica, Arial-Unicode, Arial, Sans-serif">Created by Daniel Solis</text><text x="0" y="120" fill="#000000" font-size="5px" font-weight="bold" font-family="'Helvetica Neue', Helvetica, Arial-Unicode, Arial, Sans-serif">from the Noun Project</text></svg>