<svg xmlns="http://www.w3.org/2000/svg" xmlns:xlink="http://www.w3.org/1999/xlink" version="1.1" x="0px" y="0px" viewBox="0 0 100 125" style="enable-background:new 0 0 100 100;" xml:space="preserve"><path d="M91.26679,18.17505l-7.55936,57.49219c-0.51428,3.90828-4.11387,6.63376-7.99641,6.11948l-4.03682-0.54001  l-7.53362-57.23498c-0.6428-4.80831-4.75667-8.43365-9.61629-8.43365c-0.41148,0-0.84855,0.02573-1.25986,0.07722l-15.7102,2.05694  l0.84855-6.50523c0.51428-3.90814,4.08829-6.65934,7.99641-6.14523l38.7224,5.11684  C89.02985,10.69274,91.78106,14.26676,91.26679,18.17505z M69.15562,81.84433l-7.5645-57.49162  c-0.51356-3.90434-4.09503-6.65307-7.99969-6.13935l-38.71895,5.09422c-3.90434,0.51373-6.65307,4.09537-6.13935,7.99969  l7.56416,57.49164c0.51373,3.90433,4.09537,6.65307,7.99969,6.13935l38.71912-5.0944  C66.92045,89.33012,69.66919,85.74866,69.15562,81.84433z"/><text x="0" y="115" fill="#000000" font-size="5px" font-weight="bold" font-family="'Helvetica Neue', Helvetica, Arial-Unicode, Arial, Sans-serif">Created by MihiMihi</text><text x="0" y="120" fill="#000000" font-size="5px" font-weight="bold" font-family="'Helvetica Neue', Helvetica, Arial-Unicode, Arial, Sans-serif">from the Noun Project</text></svg>