<?xml version="1.0" encoding="UTF-8"?>
<svg width="1200pt" height="1200pt" version="1.1" viewBox="0 0 1200 1200" xmlns="http://www.w3.org/2000/svg">
 <path d="m94.117 766.4c-25.223-42.926-40.777-98.473-29.09-126.93 13.512-32.902 25.297 68.363 45.18 116.75 48.156-28.645 112.59-52.523 188.48-69.793-11.375-35.027-34.547-93.637-25.98-98.484 7.668-4.3086 34.922 41.617 52.379 92.832 18.84-3.7695 38.281-7.1758 58.309-10.152-18.277-63.406-48.625-106.33-70.129-133.26-40.738-50.988-102.79-37.355-161.34-28.391-39.984 6.1562-80.484 17.965-103.43 39.863-60.949 58.211-65.41 167.24-7.9688 265.61 13.18-17.035 31.312-33.102 53.586-48.043z"/>
 <path d="m141.41 488.5c24.277-2.7852 90-2.1602 78.828-99.301-3.7305-32.387-40.777-69.156-97.453-62.617-49.223 5.6641-68.27 48.18-62.617 97.414 5.5977 48.578 56.957 67.297 81.242 64.504z"/>
 <path d="m494.73 391.31c5.7344 48.574 57.145 67.117 81.434 64.246 24.277-2.8672 90-2.4258 78.527-99.539-3.8398-32.375-40.992-69.035-97.668-62.328-49.176 5.8359-68.113 48.41-62.293 97.621z"/>
 <path d="m1113.5 543.28c22.895 0.15625 83.977 8.1484 84.562-83.496 0.20312-30.562-30.133-68.941-83.605-69.266-46.414-0.28906-68.965 37.129-69.254 83.578-0.29687 45.82 45.375 69.027 68.297 69.184z"/>
 <path d="m693.09 659.3s-5.3047-88.906 13.188-110.32c42-48.66 108-141.7 90.984-278-2.6641-21.277-11.762-45.156-33.18-44.258-21.383 1.2461-28.078 21.852-26.82 43.246 5.4375 92.965-24.637 161.29-54 192.43-23.113 24.504-51.277 26.844-117.5 26.844-40.945 0-74.617-14.52-100.05-43.164-35.543-39.996-61.453-98.988-52.945-170.87 2.5195-21.289-2.3047-45.77-23.594-48.289-21.215-2.3516-37.297 17.867-37.906 39.289-4.5 159 72 222.55 90 265.3 16.895 40.105 9.6133 130.96 9.6133 130.96 44.941-4.2852 92.039-6.6016 140.76-6.6016 34.734 0.003907 68.586 1.2031 101.46 3.4336z"/>
 <path d="m529.25 205.76c1.8828 5.3047 6.875 8.6289 12.203 8.6289 1.4297 0 2.8789-0.25391 4.3086-0.74219 6.7422-2.375 10.273-9.7812 7.8828-16.512l-28.57-80.711c-2.3984-6.7422-9.8047-10.262-16.512-7.8711-6.7422 2.375-10.273 9.7812-7.8828 16.523z"/>
 <path d="m479.35 235.43c2.543 2.6992 5.9766 4.0664 9.4062 4.0664 3.2031 0 6.3945-1.1875 8.8906-3.5391 5.207-4.9062 5.4375-13.094 0.52734-18.289l-47.461-50.23c-4.9219-5.207-13.117-5.4375-18.289-0.51562-5.207 4.8945-5.4375 13.094-0.52734 18.277z"/>
 <path d="m668.93 247.62c3.8398 0 7.668-1.7148 10.223-5.0039l40.453-52.031c4.3789-5.6406 3.3711-13.754-2.2695-18.145-5.6523-4.4141-13.754-3.3711-18.168 2.2695l-40.43 52.031c-4.4023 5.6406-3.3711 13.754 2.2578 18.145 2.3516 1.8594 5.1484 2.7344 7.9336 2.7344z"/>
 <path d="m603.65 214.98c0.76953 0.12109 1.5234 0.19141 2.2578 0.19141 6.1797 0 11.641-4.4297 12.742-10.715l16.812-95.746c1.2461-7.0312-3.4688-13.754-10.5-14.988-7.1172-1.1992-13.754 3.4922-14.988 10.523l-16.812 95.746c-1.2344 7.0352 3.457 13.754 10.488 14.988z"/>
 <path d="m597.18 917.25 0.011718 0.058594-12.719 2.3906-35.82 6.7539 33.516 47.34 53.617-37.992-43.562-54.168 3.0117 21.625 2.6172 13.859z"/>
 <path d="m528.17 905.82 41.641-7.8477-9.3125-49.367-2.6406-14.016-4.2227-22.414-64.586 12.191 9.8164 52.031 2.6875 14.23 3.6836 19.523 8.9414-1.6797z"/>
 <path d="m276.96 833.47 66.941 56.012-42.184 50.414-66.941-56.012z"/>
 <path d="m719.03 760.82 16.168 85.789-64.598 12.176-16.168-85.789z"/>
 <path d="m1128.1 859.72c-0.70703 0.39453-1.3438 0.79297-2.0625 1.1992-30.422 17.113-67.992 27.973-111.7 32.316-1.7656 0.21484-3.5898 0.30078-5.4375 0.30078-27.359 0-60.336-24.238-63.527-56.664l-0.10938-1.0078-0.023437-1.0195c-0.33594-26.398 23.305-45.805 60.266-49.453 13.98-1.3672 26.496-3.3828 38.051-6.1094-0.25391-0.16797-0.51562-0.27734-0.76953-0.44531-17.867-9.3008-61.824-27.574-94.391-40.801-96.156-32.113-221.72-51.613-359.21-51.613-302.32 0-547.41 94.031-547.41 210.01 0 115.99 245.09 210 547.41 210 302.33 0 547.4-94.008 547.4-210 0.011718-12.535-3.0117-24.789-8.4961-36.715zm-765.84 45.156-42.156 50.41-15.395 18.406-18.422-15.395-66.961-56.016-18.395-15.395 15.383-18.395 42.145-50.426 15.395-18.422 18.406 15.395 66.961 56.027 18.406 15.395zm287.39 50.496-53.629 37.992-19.598 13.883-13.871-19.609-33.516-47.34-6.3828-9.0234-4.0547 0.74219-8.9414 1.7031-23.605 4.4414-4.4414-23.578-3.6719-19.5-2.6875-14.258-9.7891-52.031-4.4531-23.594 23.578-4.4414 64.586-12.191 23.594-4.4531 4.4531 23.594 4.1758 22.129 29.543 36.73 43.57 54.18 15.996 19.883zm1.8594-68.508-4.4531-23.594-16.176-85.777-4.4531-23.594 23.578-4.4414 64.57-12.203 23.617-4.4414 4.4297 23.594 16.199 85.777 4.4297 23.605-23.578 4.4414-64.586 12.203zm189.21 112.4-75.262 2.9297-23.977 0.9375-0.9375-23.98-2.2422-56.629-0.92578-24 23.988-0.9375 75.266-2.9023 23.965-0.9375 0.9375 23.977 2.2188 56.629 0.9375 23.988z"/>
 <path d="m837.55 918.62 2.2383 56.629-75.238 2.9727-2.2383-56.629z"/>
 <path d="m1199.9 652.04-0.070312-10.055c0-15.539-9.168-33-21.023-41.496-23.531-16.895-78.816-29.664-116.29-29.664-17.676 0-33.59 4.5977-47.508 9.1797-33.613 11.039-78.168 6.7188-83.16-7.9688-6.3945-18.828-4.0312-78.422 5.6758-131.44 3.8398-21.098 5.6992-52.344-15.395-56.219-21.047-3.8164-41.293 10.117-45.168 31.211-18.492 101.04-22.523 164.9-11.977 189.78 12.77 30.145 66.324 46.691 104.09 46.309 10.078-0.097657-6.0703 42.395-19.895 63.863 49.754 15.254 92.734 33.73 127.11 54.66 30.156-15.145 34.332-40.523 43.234-82.199 0.20312-0.74219 0.49219-1.1641 0.71875-1.8242 6.2383-20.23 27.266-12.938 25.199 1.6797-3.5156 24.625-7.3555 47.711-19.129 67.164-6.6367 10.969-15.887 20.746-29.039 28.992-3.8633 2.4102-8.1133 4.7266-12.719 6.8516-4.4766 2.1016-9.3359 4.0664-14.605 5.8672-3.7578 1.2852-7.7539 2.5312-11.953 3.6836-14.172 3.875-30.516 6.9375-50.09 8.8672-21.324 2.1016-38.809 11.207-38.641 25.262 1.9688 20.039 26.258 36.887 42.445 34.812 43.453-4.2734 76.801-14.891 102.56-29.375 1.4766-0.81641 2.9297-1.668 4.332-2.5078 3.793-2.2578 7.4297-4.6211 10.848-7.0312 3.5391-2.5078 6.9609-5.0742 10.152-7.7266 58.055-48.383 60.59-121.2 60.348-163.57 0-2.3711-0.023437-4.8203-0.046875-7.1094z"/>
</svg>
